<!-- <svg width="33" height="33" viewBox="0 0 33 33" fill="none" xmlns="http://www.w3.org/2000/svg">
<g clip-path="url(#clip0)">
<path fill-rule="evenodd" clip-rule="evenodd" d="M5.37754 16.9795L12.7498 9.43027C14.7163 7.41663 17.9428 7.37837 19.9564 9.34482C19.9852 9.37297 20.0137 9.40145 20.0418 9.43027L20.1221 9.51243C22.1049 11.5429 22.1049 14.7847 20.1221 16.8152L12.7498 24.3644C10.7834 26.378 7.55686 26.4163 5.54322 24.4498C5.5144 24.4217 5.48592 24.3932 5.45777 24.3644L5.37754 24.2822C3.39468 22.2518 3.39468 19.0099 5.37754 16.9795Z" fill="#12D2AC"/>
<path fill-rule="evenodd" clip-rule="evenodd" d="M20.0479 9.43034L27.3399 16.8974C29.3674 18.9735 29.3674 22.2883 27.3399 24.3644C25.3735 26.3781 22.147 26.4163 20.1333 24.4499C20.1045 24.4217 20.076 24.3933 20.0479 24.3644L12.7558 16.8974C10.7284 14.8213 10.7284 11.5065 12.7558 9.43034C14.7223 7.4167 17.9488 7.37844 19.9624 9.34489C19.9912 9.37304 20.0197 9.40152 20.0479 9.43034Z" fill="#307AF2"/>
<path fill-rule="evenodd" clip-rule="evenodd" d="M20.1321 9.52163L23.6851 13.1599L16.3931 20.627L9.10103 13.1599L12.6541 9.52163C14.6707 7.45664 17.9794 7.4174 20.0444 9.434C20.074 9.46286 20.1032 9.49207 20.1321 9.52163Z" fill="#0057FE"/>
</g>
<defs>
<clipPath id="clip0">
<rect width="26" height="19" fill="white" transform="translate(3.5 7)"/>
</clipPath>
</defs>
</svg> -->

<?xml version="1.0" standalone="no"?>
<!DOCTYPE svg PUBLIC "-//W3C//DTD SVG 20010904//EN"
 "http://www.w3.org/TR/2001/REC-SVG-20010904/DTD/svg10.dtd">
<svg version="1.0" xmlns="http://www.w3.org/2000/svg"
 width="200.000000pt" height="200.000000pt" viewBox="0 0 200.000000 200.000000"
 preserveAspectRatio="xMidYMid meet">
<metadata>
Created by potrace 1.10, written by Peter Selinger 2001-2011
</metadata>
<g transform="translate(0.000000,200.000000) scale(0.100000,-0.100000)"
fill="#000000" stroke="none">
<path d="M457 1701 c-17 -17 -17 -29 -8 -157 6 -77 11 -191 11 -255 0 -190 7
-203 100 -189 85 13 180 20 180 13 0 -3 -20 -74 -44 -157 -25 -83 -52 -182
-62 -221 -9 -38 -20 -77 -24 -85 -11 -22 -80 -265 -80 -282 0 -8 8 -22 18 -32
17 -15 58 -16 407 -15 457 1 407 -16 454 160 17 63 37 133 43 156 15 54 -1 78
-46 68 -63 -12 -259 -35 -264 -30 -3 3 4 24 16 47 30 62 112 246 112 252 0 3
20 49 45 102 25 53 45 98 45 100 0 2 16 35 35 75 19 39 37 80 41 91 3 12 26
63 50 115 24 52 44 96 44 98 0 3 13 33 30 67 51 105 90 98 -544 97 -510 0
-542 -1 -559 -18z m873 -530 c-127 -283 -230 -519 -230 -524 0 -14 289 16 322
34 23 12 23 6 -5 -77 -13 -38 -34 -111 -47 -161 l-22 -93 -400 0 c-376 0 -399
1 -394 18 9 28 226 785 226 788 0 2 -12 -1 -27 -6 -16 -4 -70 -11 -121 -15
-51 -3 -103 -10 -116 -15 l-24 -9 -6 237 c-3 130 -8 261 -11 289 l-5 53 542 2
c299 2 544 1 545 -2 2 -3 -101 -237 -227 -519z"/>
</g>
</svg>
